<?xml version='1.0' encoding='utf-8'?>
<svg xmlns="http://www.w3.org/2000/svg" version="1.1" width="600px" height="976px" viewBox="0 0 600 976"> <g id="layer1"> <g style="fill:rgb(0,0,0); fill-opacity:1.0; stroke-linejoin: miter"> </g> <g style="fill:rgb(0,0,0); fill-opacity:1.0; stroke-linejoin: miter"> <path d="M292.49493,206.05696C291.4112,206.05696,290.38,206.13791,289.4209,206.3064C286.28918,206.89355,278.06842,210.71033,273.273,213.84204C261.92053,221.182,259.57172,225.48804,259.66962,238.1128C259.66962,242.58511,259.98392,247.76457,260.33087,250.34203L260.32828,250.34203Q259.44897,250.9079,259.3759,251.08858L256.84097,254.35443Q256.6294,254.64192,256.47253,255.00574Q255.8458,256.17242,255.34851,260.6218Q255.20038,261.49435,255.55936,264.1793Q256.34323,268.40833,258.04605,271.31683Q259.99136,274.4827,261.777,276.82538L263.13,279.17496L263.12735,279.17496Q263.4278,281.4454,263.94354,284.433Q263.96652,285.0052,265.1155,287.8562Q265.91693,289.4384,266.95947,291.08087Q267.2632,292.01733,268.3115,294.04276Q268.31885,294.14096,268.45947,294.33685L268.4568,294.33685Q269.0806,297.86255,269.03952,298.81952Q269.2199,299.23703,268.79608,304.68735Q268.66107,306.78244,268.40408,307.68427Q267.84955,310.06976,266.6378,313.06757L266.63513,313.06757Q266.0244,313.6563,265.2914,314.35297L263.2495,316.68164L262.7916,317.14844L262.7916,317.14844C262.7563,317.02353,262.70297,316.9634,262.6291,316.9634C262.4676,316.9634,262.20773,317.25058,261.8227,317.77563C261.488,318.20587,261.15335,318.6829,260.88712,319.0925L260.88452,319.0925L258.4181,321.60678L258.12997,321.95685L258.12738,321.95685C252.45285,325.81433,235.87715,334.53485,205.74547,349.68005C190.86986,357.21564,190.86986,357.21564,189.98909,363.87048C188.76529,373.93893,187.9209,380.33972,187.09651,385.37317L187.09465,385.37317Q186.92857,386.0891,186.8899,386.6196L186.88803,386.6196C186.33215,389.8722,185.77158,392.59033,185.09578,395.48126C181.37685,412.02057,180.10463,423.37305,179.81099,440.98895C179.61528,458.50696,179.61528,458.7027,175.99422,469.37012C171.10094,483.5606,167.67561,498.72992,166.99055,509.00568C166.73679,513.01544,166.64095,515.05096,166.79863,515.76746L166.79695,515.76746Q165.62445,520.8323,165.43947,521.31604L162.76442,530.3738Q162.4516,531.4707,162.2314,532.44434Q161.66838,534.78906,160.90544,540.5135L160.90382,540.5135C156.14697,555.65607,154.24225,563.7913,152.40852,576.04395C151.92543,579.26465,151.23624,583.19196,150.53473,586.76013L150.53322,586.76013L150.35649,587.3531Q149.81601,589.2257,149.37825,591.0918L148.53386,594.9601Q146.49562,603.3073,146.19739,605.0156Q145.44212,608.8013,145.12505,613.62396L145.1236,613.62396L145.0607,613.7097Q140.4093,621.07465,139.78468,622.7349Q139.17152,624.16766,138.25844,628.975Q137.8982,636.1904,138.64644,637.99304Q139.4326,640.6586,141.85971,642.48126Q143.59837,643.47,144.88324,643.6172L144.88179,643.6172Q144.91136,644.27814,144.94572,644.99567Q145.11322,647.50934,145.58363,650.03815Q146.04672,651.59546,146.82338,652.73157L146.8219,652.73157Q139.69618,656.7,127.105675,666.70526L127.10441,666.70526C125.48756,666.8605,125.36582,667.4204,125.10393,668.6251C123.83165,674.2035,120.11278,797.41675,120.993576,800.4506C121.580765,802.1143,123.34236,802.4079,138.02226,803.4844C147.02592,804.0716,156.2253,804.85455,158.37837,805.05023C159.13417,805.1237,159.80777,805.2051,160.41042,805.2051C160.96092,805.2051,161.45222,805.1372,161.89287,804.93335L161.89449,804.93335L163.03444,805.0472L177.01291,770.3455L181.58856,650.3942Q171.79553,647.63556,165.41963,647.5531L165.41798,647.5531L165.66586,647.2123Q166.18884,646.3952,166.51741,645.5961Q167.7865,641.86237,168.41464,640.57416Q171.18076,635.19257,171.42426,634.40497Q172.2781,632.42523,172.83362,628.8389Q172.88014,628.55316,172.92804,628.2097L172.9263,628.2097C174.39445,627.40686,176.1318,626.14294,177.4622,624.8791C180.39821,622.04095,181.67043,619.105,186.07442,605.5994C192.63145,585.83057,194.09944,581.6223,202.61375,557.9387C206.43056,547.46716,212.20464,530.92773,215.53206,521.239C220.84424,505.706,222.46027,500.89175,222.98323,500.89175C223.2214,500.89175,223.23286,501.89026,223.2635,503.32953C223.36137,505.38477,222.48058,510.18024,221.404,514.0948C220.3275,518.0094,219.05522,524.2728,218.46806,528.08966C215.14064,550.20734,213.7705,560.77686,213.7705,563.8107C213.7705,565.67017,213.08543,569.09546,212.20464,571.3464C209.26863,579.56714,205.94121,613.13513,205.84334,635.4486C205.74547,649.737,205.84334,650.81354,207.6049,651.4007C209.26863,651.8901,209.56227,653.2602,210.05156,662.4596C210.44304,668.23364,211.4217,681.44556,212.20464,691.81934C214.16194,715.3072,213.7705,743.2968,210.24733,829.0274C208.77934,864.55273,208.09425,902.91626,208.4857,927.3827L208.68147,941.18176L211.91106,942.3562C212.20207,942.4705,212.46439,942.57605,212.69894,942.6743L212.69682,942.6743Q207.36002,949.19977,201.92105,956.5773Q199.64699,959.3328,197.31741,961.1804Q194.79135,963.18604,191.87123,964.2682Q190.25668,964.8714,188.29984,965.3604Q179.61626,967.2289,179.67717,967.3428Q177.3507,968.0458,176.48424,968.9721Q174.01666,972.3225,179.74086,976.8766Q181.27806,978.1057,183.48679,978.9785L183.48494,978.9785C183.65321,979.08466,183.83266,979.17706,184.01921,979.25165C184.24226,979.33954,184.57643,979.42645,185.00697,979.51184L185.00513,979.51184Q190.1581,981.11615,198.33423,981.11615Q200.66557,981.11615,203.24274,980.9857L203.3735,980.8744L203.37553,980.8744C205.99771,980.9561,208.57204,981.00165,210.8734,981.00165C214.51814,981.00165,217.47827,980.88745,218.85951,980.6218C226.0854,979.3159,231.68497,977.313,233.9358,975.302L233.93347,975.302Q244.73187,972.3672,249.29312,968.9284Q250.03119,968.3959,250.71184,967.8326L250.70934,967.8326C251.2547,967.6912,251.76587,967.5497,252.2318,967.4099C259.57172,965.25684,260.5504,963.98456,259.08246,958.40625C258.73102,957.0004,258.50833,955.5689,258.4409,954.33624L258.4383,954.33624Q258.61237,953.0688,258.65274,951.67017L258.65015,951.67017C258.66318,951.6307,258.6768,951.59247,258.69098,951.5556C259.1049,950.373,259.19727,949.83344,258.6443,949.5916L258.6417,949.5916Q258.5195,946.3171,257.7542,942.41125L257.75162,942.41125C258.32962,940.6658,258.58374,937.8121,258.69098,933.25464C258.69098,930.025,259.37604,922.2937,260.15894,916.1282C260.9419,909.9625,261.92053,894.69543,262.50775,882.3644C262.99707,869.9354,264.0736,852.61316,264.8565,843.7073C265.63947,834.8015,266.52026,822.6661,266.81384,816.7942C266.95105,814.70166,267.1003,812.4769,267.2489,810.3559L267.24625,810.3559Q268.34424,803.42444,269.44482,792.43555Q272.11978,766.3878,275.43582,716.4847L275.43307,716.4847C275.57693,715.6006,275.7086,714.6672,275.8175,713.74133C276.30682,708.848,277.28546,706.49927,280.41724,701.9974C282.57025,698.96356,285.1148,694.6575,286.09344,692.50446C286.9822,690.4492,287.42957,689.52893,287.73975,689.52893C287.97604,689.52893,288.13272,690.0631,288.3443,691.03644C288.48462,691.73804,289.19077,697.092,290.17432,704.7637L290.17142,704.7637Q293.12613,731.04913,295.04828,749.8955Q296.93372,767.8549,299.19968,795.0738Q299.6166,799.5791,300.03418,803.01263Q300.9841,811.1587,302.50662,815.3275L302.5036,815.3275C302.71277,817.84875,302.92374,820.50214,303.12213,823.1555C304.688,843.0223,305.373,849.87286,308.6026,875.0244C309.5813,883.343,310.95135,897.04425,311.44073,905.36285C312.32147,920.1406,312.9087,928.2635,313.98523,940.1053C314.15106,941.9296,314.44183,943.629,314.7693,944.8331L314.76614,944.8331Q314.7549,947.2047,315.0863,950.05023Q315.47485,953.71246,316.57327,959.86804Q316.64227,959.8516,316.7125,959.83655L316.71567,959.83655C316.07587,963.92017,319.69778,967.323,327.09924,969.5629C332.5797,971.1288,333.06903,971.52026,332.48187,973.57544C331.69897,976.90283,335.90717,980.3282,343.83435,982.77484C348.92334,984.3407,353.52307,984.83,363.9947,984.92786C364.5462,984.935,365.08115,984.9413,365.60013,984.9468L365.59647,984.9468Q367.95453,985.2861,370.18192,985.2861Q372.65402,985.2861,374.96515,984.8681L374.9614,984.8681C380.75882,984.5963,382.42212,983.71606,383.7636,981.50256C384.938,979.5453,384.84015,979.1538,382.49133,977.09863C382.14862,976.8067,381.7104,976.5032,381.19888,976.1961L381.19507,976.1961Q380.10925,974.6967,376.47397,970.1533Q375.5568,968.9377,374.69107,967.6587Q372.39056,964.2528,370.5343,960.42444Q368.19232,955.62006,365.37466,947.4935L365.37833,947.4935C365.49985,947.67346,365.62674,947.8543,365.7563,948.0325C366.27942,948.71655,366.58743,949.1028,366.70078,949.1028C366.8631,949.1028,366.62616,948.3106,366.04987,946.46655C365.4627,944.60706,364.5819,942.2583,364.0926,941.18176C363.6422,940.35614,363.53726,939.8759,363.7777,939.87354L363.78134,939.87354C363.85425,939.87427,363.95798,939.9177,364.0926,940.00745C364.09818,940.0108,364.10373,940.01245,364.10928,940.01245C364.5908,940.01245,364.9734,927.45215,364.9734,908.00525C364.9995,902.3388,364.99774,897.5503,364.97183,893.6563L364.96817,893.6563Q365.77063,864.9313,366.5036,841.77936L366.49994,841.77936C366.5879,839.71216,366.65244,837.77765,366.6902,836.0547L366.68652,836.0547Q366.8806,830.0369,367.06973,824.4195L367.06607,824.4195C367.1995,823.5697,367.27942,822.1832,367.32214,820.2195C367.42004,816.69635,367.61572,809.74786,367.81146,804.75665C367.89084,802.9044,367.93445,801.3956,367.93646,800.1819L367.9328,800.1819Q368.15057,794.4421,368.3608,789.30585L368.35712,789.30585Q368.595,788.0593,368.8179,786.75354Q371.27756,772.6679,372.86176,749.91284Q373.58984,739.5318,374.1994,726.975L376.383,678.10913Q376.8621,668.2755,379.0238,645.22974Q379.34186,640.83136,379.3211,637.06366Q379.70557,625.9093,372.6746,588.73376L372.67087,588.73376C372.08664,583.3256,371.5614,580.64276,370.99695,580.01184L370.99326,580.01184Q370.24692,576.2068,369.43384,572.16754L369.43015,572.16754C369.4113,571.71014,369.39362,571.2401,369.37732,570.75916C369.27948,565.08295,368.69226,557.743,368.20294,554.5135C367.1264,548.25006,364.87555,527.9917,363.21173,510.66943C362.4289,501.86163,362.52673,498.53406,363.79895,491.58563C364.7776,486.88806,365.7563,479.4502,366.14777,475.04633C366.6371,469.8593,367.61572,466.04266,368.7901,464.281L370.5517,461.5407L371.43256,466.43414C373.6834,480.03748,377.50018,499.02338,379.94684,509.49512C383.07855,522.60913,385.0359,532.0043,387.77612,547.17346C388.75482,552.84973,390.51636,561.1683,391.69073,565.768C393.64807,573.2058,393.94165,576.2397,393.74597,594.8342L393.64807,615.5818L397.56268,618.7135C399.74243,620.4917,400.71182,621.3622,401.14087,622.7831L401.13687,622.7831Q396.47934,643.82007,397.39267,648.42Q397.76266,652.7765,400.14725,654.4931Q403.14163,656.49524,410.52573,658.67236Q414.42557,659.58356,417.63162,659.58356Q427.057,659.58356,430.48584,651.708Q433.26016,646.1647,433.21887,631.6447L433.21457,631.6447Q434.66183,628.9941,436.28558,625.29626L436.28995,625.29626C436.40512,625.35004,436.52963,625.3764,436.66638,625.3764C437.10754,625.3764,437.67627,625.10187,438.4707,624.58545C439.44934,623.9983,439.54718,622.43243,438.76428,617.5391C437.98132,612.3522,437.98132,603.15283,438.96002,595.1278C439.05786,594.34485,438.76428,588.37506,438.2749,581.9159C438.12216,579.64014,437.9337,577.40967,437.7072,575.2156L437.70282,575.2156Q438.02176,573.5807,437.74994,569.918L436.79715,563.9509L435.95993,559.97626L435.29178,556.1779L432.65515,544.71606L431.59122,538.85394L431.58688,538.85394C431.63818,534.83655,429.51373,515.5336,427.80328,505.09113C427.21613,501.56793,424.96515,491.8792,422.81213,483.5606C419.58252,470.64227,418.99536,466.53186,418.70172,456.15814C418.64377,453.4725,418.52097,450.9356,418.3032,448.39612L418.299,448.39612Q418.3081,448.27042,418.3104,448.12793Q418.66074,444.6869,416.9168,436.80237L415.2698,430.40598L415.26566,430.40598C414.55048,427.37347,413.69647,424.05533,412.6793,420.32916L412.67517,420.32916L412.3582,419.0981L410.3018,409.54144Q408.58328,401.76678,407.1426,396.5172L405.72104,390.23163L405.72507,390.23163C405.8611,390.52698,405.9615,390.68332,406.03046,390.68332C406.27127,390.68332,406.12906,388.77722,405.78345,384.22668C405.48987,379.92053,404.51117,373.2657,403.53253,369.54675C402.5539,365.72992,401.37946,361.03247,401.08588,358.87933C400.6944,356.72632,399.22644,354.08392,397.75848,352.6159C394.23523,349.38647,358.0249,331.5747,348.14044,328.2473C338.8432,325.2135,333.852,322.2776,328.6651,316.797L327.51672,315.55798L323.83975,310.96164L323.843,310.96164Q323.54245,310.719,323.19156,310.40906Q320.62836,307.77094,319.21707,304.33652Q319.0498,303.93533,318.84644,303.35776L318.84323,303.35776Q318.81094,303.44626,318.77872,303.5346L318.77875,303.5346L318.00922,301.9383Q316.88385,300.34335,314.8911,296.49786L314.88797,296.49786Q315.31274,296.163,315.7349,295.67288L316.94534,294.2169Q317.0457,294.0946,317.1358,293.95975Q317.3212,293.67493,317.5281,293.26514Q317.5428,293.22946,317.55692,293.19525L317.55374,293.19525Q319.2303,290.55447,321.55035,285.0818Q322.7318,279.77744,323.68237,276.09976L323.67914,276.09976Q323.9274,275.778,324.06445,275.5496L324.4043,274.83212L325.3326,273.26398Q325.36755,273.2095,325.42783,273.04477L325.4246,273.04477C325.53384,272.95245,325.6164,272.80182,325.6691,272.60504L325.66583,272.60504Q326.3966,271.97455,327.1783,271.20343Q327.31552,271.06607,327.43784,270.91504L328.12177,270.03232Q329.37146,268.34833,329.9693,266.22726Q330.58078,263.57617,330.55106,263.52533L330.5474,263.52533Q330.57443,262.91293,330.59268,262.4415L330.59598,262.4415C330.65744,262.52646,330.70395,262.5685,330.73578,262.5685C330.82434,262.5685,330.79932,262.243,330.66675,261.61014L330.66342,261.61014Q330.78702,261.0745,330.9455,260.4043Q331.12302,259.55756,330.8832,258.65466Q330.6905,257.80728,330.3315,257.24274Q329.7304,256.20245,328.81882,255.13312Q328.39944,254.59903,327.4679,254.59903Q327.32053,254.59903,327.16034,254.6124L327.1482,254.61682L327.1046,254.72206L327.10135,254.72206C327.03864,254.72978,326.9727,254.73907,326.9035,254.75C326.80005,254.77957,326.70105,254.79352,326.6082,254.79352C326.54773,254.79352,326.48987,254.7876,326.4351,254.77625L326.43182,254.77625L325.9104,253.84105L325.90714,253.84105C325.91226,253.81807,325.91815,253.79483,325.92487,253.77136C326.0227,253.0863,326.41418,248.58447,326.80566,243.78906C327.68646,230.28345,324.75043,222.8457,315.0617,214.625C308.9486,209.5307,299.59436,206.05696,292.49493,206.05696 Z"/> </g> </g> </svg>